<?xml version="1.0" standalone="no"?>
<!DOCTYPE svg PUBLIC "-//W3C//DTD SVG 20010904//EN"
 "http://www.w3.org/TR/2001/REC-SVG-20010904/DTD/svg10.dtd">
<svg version="1.0" xmlns="http://www.w3.org/2000/svg"
 width="500.000000pt" height="500.000000pt" viewBox="0 0 500.000000 500.000000"
 preserveAspectRatio="xMidYMid meet">

<g transform="translate(0.000000,500.000000) scale(0.100000,-0.100000)"
fill="#000000" stroke="none">
<path d="M3065 4791 c-8 -8 -38 -15 -67 -17 -29 -1 -79 -10 -112 -18 -32 -9
-66 -14 -76 -11 -9 3 -43 -4 -76 -16 -32 -11 -70 -23 -84 -26 -32 -7 -182 -64
-196 -75 -7 -5 -38 -22 -70 -38 -59 -30 -123 -70 -230 -145 -71 -49 -208 -178
-240 -225 -14 -19 -36 -50 -49 -69 -18 -24 -25 -47 -25 -77 0 -24 2 -44 4 -44
2 0 29 15 59 34 110 66 285 146 425 196 155 54 337 104 356 96 6 -2 3 -5 -8
-5 -16 -1 -15 -4 9 -23 54 -42 75 -132 54 -231 -17 -81 -60 -125 -147 -151
-35 -10 -71 -27 -80 -36 -10 -10 -78 -37 -152 -59 -74 -23 -143 -44 -152 -47
-10 -3 -18 0 -18 6 0 6 -9 24 -21 39 -21 29 -47 32 -76 8 -7 -5 -13 -6 -13 -2
0 4 -13 -10 -29 -31 -17 -22 -37 -47 -45 -56 -19 -21 -20 -35 -4 -40 6 -2 -17
-16 -51 -31 -141 -61 -302 -195 -337 -279 -22 -56 -34 -61 -35 -15 -1 67 -10
71 -60 30 -169 -141 -365 -436 -454 -683 -14 -41 -35 -84 -45 -95 -29 -31 -98
-184 -114 -253 -18 -76 -12 -253 11 -335 16 -56 16 -59 -3 -76 -10 -10 -48
-28 -83 -41 l-63 -23 28 -16 29 -16 -65 -6 c-70 -6 -127 -30 -137 -57 -4 -9
-36 -55 -71 -102 -115 -152 -151 -262 -138 -432 10 -143 68 -274 174 -389 60
-65 133 -106 262 -144 47 -14 91 -29 98 -33 7 -5 22 -42 33 -82 11 -41 25 -80
31 -87 16 -20 3 -288 -21 -428 -25 -143 -25 -135 -6 -135 8 0 15 2 15 4 0 2 9
61 20 132 13 85 22 203 26 344 3 118 7 217 10 219 2 2 55 5 117 5 l113 1 104
52 c66 33 107 48 111 42 3 -6 6 -188 5 -405 l-1 -394 1748 0 1747 0 0 538 0
537 -38 24 c-43 29 -123 39 -174 22 -40 -13 -72 -44 -103 -98 -24 -44 29 -43
-442 -7 -183 15 -344 24 -358 20 -22 -6 -25 -12 -26 -54 -1 -44 -1 -45 -10
-17 -5 16 -11 43 -14 60 -8 46 -19 245 -13 245 3 0 22 -7 41 -15 57 -24 75
-19 149 41 l68 57 123 2 c81 1 140 8 175 19 82 26 150 107 167 198 6 30 3 39
-18 60 -58 58 -113 211 -151 421 -69 373 -92 732 -65 1002 16 157 16 158 -33
222 -24 32 -51 70 -60 84 -9 14 -24 34 -34 44 -14 14 -15 21 -6 36 16 25 15
27 -10 32 -17 3 -13 5 10 6 51 2 124 -42 218 -131 l41 -39 7 43 c4 24 14 65
23 92 14 43 17 47 28 33 14 -19 36 -107 64 -251 11 -54 24 -103 30 -109 20
-20 -6 119 -60 326 -11 42 -10 50 4 64 13 13 19 14 31 4 13 -11 17 -10 22 3
23 61 -41 179 -138 254 -36 28 -64 60 -77 88 -12 24 -21 46 -21 49 0 3 -16 40
-35 81 -19 41 -35 78 -35 83 0 5 -7 14 -15 21 -8 7 -20 30 -26 51 -7 21 -20
46 -31 55 -10 10 -18 23 -18 29 0 7 -10 20 -22 29 -66 47 -65 47 -36 37 14 -6
54 -24 87 -41 53 -26 61 -28 61 -13 0 54 -141 230 -249 312 -100 75 -137 97
-189 111 -24 6 -51 20 -60 31 -9 10 -26 19 -39 19 -12 0 -25 5 -28 10 -3 6
-21 10 -39 10 -17 0 -37 5 -43 11 -6 6 -30 12 -52 13 -22 1 -49 10 -60 20 -11
10 -24 15 -30 11 -6 -3 -37 -1 -68 5 -92 18 -341 18 -358 1z m799 -415 c65
-16 105 -31 113 -42 32 -44 68 -234 45 -234 -24 0 -118 23 -128 31 -6 5 -14 6
-17 2 -4 -3 -7 -1 -7 5 0 7 -7 12 -15 12 -8 0 -24 9 -34 19 -11 11 -23 16 -27
13 -4 -4 -4 1 -1 10 3 9 1 18 -5 20 -6 2 -11 18 -12 35 0 17 -4 29 -8 27 -3
-2 -11 17 -17 43 -5 27 -13 56 -16 66 -9 23 7 22 129 -7z m-1334 -995 c-95
-77 -266 -236 -282 -263 -19 -30 -12 -66 19 -100 8 -9 12 -22 8 -27 -3 -7 3
-11 15 -11 11 0 37 -7 57 -15 32 -13 38 -14 52 -1 17 16 91 50 96 44 1 -2 10
-20 20 -41 36 -78 104 -99 205 -64 56 19 68 28 93 68 65 106 36 212 -66 240
l-41 11 24 19 c80 61 219 -38 206 -146 -4 -34 -3 -37 7 -20 6 11 11 46 12 78
0 76 17 91 94 83 30 -2 58 -9 64 -15 7 -7 21 -2 42 15 78 59 241 99 334 83 31
-6 53 -18 69 -36 22 -26 23 -34 18 -113 -12 -177 -57 -456 -84 -525 -19 -49
-49 -91 -78 -110 -32 -21 -216 -43 -409 -50 -289 -9 -363 -15 -504 -41 -187
-35 -272 -58 -371 -103 -47 -22 -107 -47 -133 -56 -52 -18 -75 -53 -60 -87 7
-17 11 -16 48 11 42 30 101 51 148 51 16 0 26 -4 22 -10 -3 -5 -23 -10 -43
-10 -32 0 -34 -1 -18 -13 17 -12 16 -15 -12 -45 -19 -20 -40 -32 -56 -32 -42
0 -72 -38 -79 -99 -4 -32 -17 -69 -31 -90 -13 -20 -29 -45 -35 -56 -29 -55 5
140 40 227 9 23 8 33 -10 62 -12 19 -32 65 -45 103 l-23 68 -15 -50 c-9 -27
-23 -87 -33 -132 l-18 -82 39 -108 c21 -59 44 -119 51 -133 7 -14 13 -37 13
-51 0 -47 41 -183 79 -264 45 -94 86 -148 159 -205 59 -47 62 -59 32 -138 -35
-93 -25 -115 80 -167 87 -44 88 -56 4 -81 -68 -20 -89 -23 -184 -29 -41 -2
-155 -14 -252 -26 -98 -13 -180 -20 -184 -17 -3 4 17 36 45 73 62 81 67 89 98
179 54 159 36 360 -48 528 -35 70 -137 185 -206 232 -104 70 -164 88 -323 95
l-134 6 -8 35 c-8 34 -2 186 8 223 4 13 16 17 50 17 24 0 44 2 44 4 0 2 6 38
14 79 14 70 49 172 82 235 l14 27 -73 13 c-100 18 -104 25 -77 103 72 205 251
478 401 614 50 45 71 43 80 -10 4 -22 19 -71 33 -109 l26 -69 -98 -101 c-54
-56 -119 -128 -144 -161 -44 -59 -148 -232 -148 -247 0 -23 20 0 64 75 27 45
74 114 104 152 67 88 219 245 236 245 15 0 49 -36 108 -117 l46 -62 21 25 c13
15 28 23 37 20 9 -3 49 -16 90 -28 41 -11 73 -26 71 -31 -1 -5 -34 -20 -72
-33 -46 -15 -80 -34 -97 -54 -39 -43 -35 -55 5 -15 48 48 124 68 245 63 l95
-3 10 30 c5 17 14 35 19 42 11 14 -32 29 -57 19 -29 -11 -43 5 -50 54 -4 27
-12 50 -18 53 -7 2 -70 12 -142 22 -71 10 -134 22 -138 26 -15 12 35 108 77
147 67 61 144 94 220 94 44 0 69 4 77 14 8 10 36 14 98 15 47 1 113 4 146 8
33 3 75 6 94 7 l35 1 -44 -36z m1560 -156 c8 5 2 -764 -5 -773 -2 -2 -24 0
-48 3 -45 7 -45 8 -36 34 6 14 12 116 14 226 3 193 20 474 31 524 l5 24 15
-22 c9 -12 19 -19 24 -16z m-968 -916 c21 -7 35 -16 32 -20 -3 -5 2 -6 10 -3
16 6 99 -37 112 -57 3 -6 -4 -5 -15 3 -17 10 -23 10 -29 1 -7 -10 -12 -10 -28
2 -23 17 -34 19 -34 5 0 -5 7 -10 15 -10 8 0 15 -6 15 -13 0 -7 14 -21 31 -31
17 -10 28 -20 25 -23 -2 -3 -32 14 -66 37 -81 55 -160 89 -243 105 -38 7 -71
16 -75 20 -11 12 209 -2 250 -16z m-432 -182 c0 -7 -7 -22 -15 -33 -13 -17
-13 -16 -3 14 13 34 18 40 18 19z m-383 -29 c-3 -7 -5 -2 -5 12 0 14 2 19 5
13 2 -7 2 -19 0 -25z m90 0 c-3 -8 -6 -5 -6 6 -1 11 2 17 5 13 3 -3 4 -12 1
-19z m-391 -140 c4 -6 2 -14 -5 -16 -7 -2 -28 -18 -47 -34 -19 -17 -37 -28
-40 -26 -10 11 21 60 45 73 32 18 38 18 47 3z m-1229 -279 c57 -27 112 -94
140 -169 l22 -59 -43 -6 c-24 -4 -58 -4 -75 0 -28 6 -31 10 -31 45 0 38 -1 39
-44 45 -31 5 -52 2 -74 -9 -37 -19 -47 -36 -66 -108 -10 -37 -15 -45 -15 -25
-1 23 -5 27 -29 27 -98 0 -35 202 81 259 53 26 80 26 134 0z m222 6 c38 -19
76 -96 62 -123 -6 -11 -19 -22 -30 -25 -15 -4 -28 8 -58 56 -48 78 -47 75 -33
92 16 19 24 19 59 0z m1298 -175 c14 -11 21 -20 16 -20 -5 0 -14 5 -20 11 -6
6 -27 11 -47 11 -20 0 -33 4 -30 9 9 16 55 10 81 -11z m593 -67 c15 -9 17 -12
5 -7 -11 3 -45 9 -75 12 -41 4 -50 7 -35 13 24 10 71 2 105 -18z m-157 -329
c40 -6 42 -11 27 -66 -16 -57 -28 -60 -206 -56 -21 0 -21 3 13 70 l34 70 47
-6 c26 -4 64 -9 85 -12z"/>
<path d="M2825 2826 c-44 -13 -118 -29 -165 -37 -63 -10 -78 -15 -60 -20 45
-12 155 -9 213 6 55 14 157 60 157 70 0 11 -70 2 -145 -19z"/>
<path d="M2125 2717 c-11 -7 -51 -25 -90 -41 -83 -33 -133 -64 -141 -89 -7
-23 22 -57 49 -57 39 0 107 51 157 117 59 78 66 97 25 70z"/>
<path d="M4520 2620 c0 -5 5 -10 10 -10 6 0 10 5 10 10 0 6 -4 10 -10 10 -5 0
-10 -4 -10 -10z"/>
<path d="M4520 2530 c0 -44 2 -50 21 -50 12 0 23 -8 26 -20 7 -27 23 -25 23 3
0 59 -13 95 -37 106 -34 15 -33 16 -33 -39z"/>
<path d="M4540 2241 c0 -5 5 -13 10 -16 6 -3 10 -2 10 4 0 5 -4 13 -10 16 -5
3 -10 2 -10 -4z"/>
<path d="M4530 2211 c0 -6 4 -13 10 -16 6 -3 7 1 4 9 -7 18 -14 21 -14 7z"/>
<path d="M4550 2176 c0 -2 7 -7 16 -10 8 -3 12 -2 9 4 -6 10 -25 14 -25 6z"/>
</g>
</svg>
